<svg width="123" height="128" viewBox="0 0 123 128" fill="none" xmlns="http://www.w3.org/2000/svg">
<g filter="url(#filter0_d_1308_48318)">
<rect x="2.5" y="0.5" width="120" height="123.723" rx="28.5" fill="#FFCE2D" stroke="#F4BD07"/>
<path d="M80.2674 95.7178H79.2442C77.7093 98.2755 75.3217 100.462 72.0814 102.277C68.8411 104.092 64.8333 105 60.0581 105C56.0504 105 52.2132 104.216 48.5465 102.649C44.9651 100.998 41.7674 98.7706 38.9535 95.9653C36.2248 93.0775 34.0504 89.6534 32.4302 85.693C30.8101 81.7326 30 77.4009 30 72.6979C30 67.9949 30.8101 63.6632 32.4302 59.7028C34.0504 55.7424 36.2248 52.3595 38.9535 49.5542C41.7674 46.6664 44.9651 44.4387 48.5465 42.871C52.2132 41.2208 56.0504 40.3958 60.0581 40.3958C64.8333 40.3958 68.8411 41.3034 72.0814 43.1185C75.3217 44.9337 77.7093 47.1202 79.2442 49.678V49.5542V41.0146V25H96V103.02H80.2674V95.7178ZM63.5116 90.0247C65.7287 90.0247 67.8178 89.6534 69.7791 88.9108C71.8256 88.0857 73.6163 86.9306 75.1512 85.4455C76.686 83.9603 77.9225 82.1451 78.8605 79.9999C79.7985 77.8547 80.2674 75.4207 80.2674 72.6979C80.2674 69.9751 79.7985 67.5411 78.8605 65.3959C77.9225 63.2506 76.686 61.4355 75.1512 59.9503C73.6163 58.4651 71.8256 57.3513 69.7791 56.6087C67.8178 55.7836 65.7287 55.3711 63.5116 55.3711C61.2946 55.3711 59.1628 55.7836 57.1163 56.6087C55.155 57.4338 53.407 58.5889 51.8721 60.0741C50.3372 61.5592 49.1008 63.3744 48.1628 65.5196C47.2248 67.6649 46.7558 70.0576 46.7558 72.6979C46.7558 75.3382 47.2248 77.7309 48.1628 79.8761C49.1008 82.0214 50.3372 83.8365 51.8721 85.3217C53.407 86.8069 55.155 87.962 57.1163 88.7871C59.1628 89.6121 61.2946 90.0247 63.5116 90.0247Z" fill="#1F1F1F"/>
</g>
<defs>
<filter id="filter0_d_1308_48318" x="0" y="0" width="123" height="127.723" filterUnits="userSpaceOnUse" color-interpolation-filters="sRGB">
<feFlood flood-opacity="0" result="BackgroundImageFix"/>
<feColorMatrix in="SourceAlpha" type="matrix" values="0 0 0 0 0 0 0 0 0 0 0 0 0 0 0 0 0 0 127 0" result="hardAlpha"/>
<feOffset dx="-1" dy="2"/>
<feGaussianBlur stdDeviation="0.5"/>
<feComposite in2="hardAlpha" operator="out"/>
<feColorMatrix type="matrix" values="0 0 0 0 0 0 0 0 0 0 0 0 0 0 0 0 0 0 0.25 0"/>
<feBlend mode="normal" in2="BackgroundImageFix" result="effect1_dropShadow_1308_48318"/>
<feBlend mode="normal" in="SourceGraphic" in2="effect1_dropShadow_1308_48318" result="shape"/>
</filter>
</defs>
</svg>
