<svg width="986" height="407" viewBox="0 0 986 407" fill="none" xmlns="http://www.w3.org/2000/svg">
<g filter="url(#filter0_d_1229_96787)">
<path d="M421.555 196V51.8594H484.055C497.987 51.8594 508.794 54.1055 516.477 58.5977C524.159 63.0247 529.53 69.0469 532.59 76.6641C535.65 84.2161 537.18 92.7122 537.18 102.152V146.391C537.18 155.961 535.552 164.49 532.297 171.977C529.107 179.464 523.671 185.355 515.988 189.652C508.306 193.884 497.694 196 484.152 196H421.555ZM450.559 173.441H481.613C488.449 173.441 493.788 172.628 497.629 171C501.47 169.307 504.172 166.736 505.734 163.285C507.362 159.835 508.176 155.44 508.176 150.102V98.3438C508.176 93.1354 507.362 88.7734 505.734 85.2578C504.107 81.6771 501.34 78.9753 497.434 77.1523C493.592 75.3294 488.319 74.418 481.613 74.418H450.559V173.441ZM568.234 174.32H594.504V73.4414H568.234V51.8594H649.484V73.4414H623.41V174.32H649.484V196H568.234V174.32ZM421.555 362V217.859H477.023C490.5 217.859 500.917 219.227 508.273 221.961C515.695 224.695 520.839 228.862 523.703 234.461C526.633 239.995 528.098 247.091 528.098 255.75C528.098 263.628 526.665 269.975 523.801 274.793C520.936 279.546 514.947 282.703 505.832 284.266V283.094C513.579 283.615 519.504 285.405 523.605 288.465C527.707 291.46 530.507 295.496 532.004 300.574C533.501 305.652 534.25 311.544 534.25 318.25C534.25 333.354 530.344 344.422 522.531 351.453C514.784 358.484 501.958 362 484.055 362H421.555ZM450.559 341.688H478.684C486.236 341.688 491.9 341.069 495.676 339.832C499.517 338.595 502.089 336.251 503.391 332.801C504.693 329.285 505.344 324.207 505.344 317.566C505.344 312.749 504.855 308.549 503.879 304.969C502.967 301.323 500.819 298.491 497.434 296.473C494.113 294.389 488.84 293.348 481.613 293.348H450.559V341.688ZM450.559 275.867H480.539C486.203 275.867 490.272 275.118 492.746 273.621C495.285 272.124 496.88 269.91 497.531 266.98C498.182 263.986 498.508 260.34 498.508 256.043C498.508 250.965 497.922 247.124 496.75 244.52C495.578 241.85 493.332 240.06 490.012 239.148C486.691 238.172 481.743 237.684 475.168 237.684H450.559V275.867ZM543.023 362L590.484 217.859H628.961L677.008 362H646.246L609.137 235.242H611.676L573.297 362H543.023ZM570.465 334.559L576.227 312.098H644L649.566 334.559H570.465Z" fill="black"/>
<path d="M701.555 51.8594H723.332L800.871 154.203L798.234 155.082V51.8594H824.016V196H802.238L724.992 95.2188L727.629 94.3398V196H701.555V51.8594ZM918.645 126.176H911.516L890.129 152.836V196H861.125V51.8594H890.129V121.781L946.184 51.8594H978.215L918.645 126.176ZM902.727 128.031L923.137 111.137L981.828 196H949.113L902.727 128.031ZM701.555 217.859H723.332L800.871 320.203L798.234 321.082V217.859H824.016V362H802.238L724.992 261.219L727.629 260.34V362H701.555V217.859ZM918.645 292.176H911.516L890.129 318.836V362H861.125V217.859H890.129V287.781L946.184 217.859H978.215L918.645 292.176ZM902.727 294.031L923.137 277.137L981.828 362H949.113L902.727 294.031Z" fill="black"/>
<path d="M205.603 31.792L55.582 110.75V142.334H355.624V110.75M276.665 173.917V284.459H324.04V173.917M55.582 363.417H355.624V316.042H55.582M181.915 173.917V284.459H229.29V173.917M87.1654 173.917V284.459H134.54V173.917H87.1654Z" fill="black"/>
<path d="M204 107.5C241.832 107.5 272.5 138.168 272.5 176C272.5 213.832 241.832 244.5 204 244.5C166.168 244.5 135.5 213.832 135.5 176C135.5 138.168 166.168 107.5 204 107.5Z" fill="#FFD600" stroke="#F7F7F7" stroke-width="21"/>
<path d="M204 163.5C210.904 163.5 216.5 169.096 216.5 176C216.5 182.904 210.904 188.5 204 188.5C197.096 188.5 191.5 182.904 191.5 176C191.5 169.096 197.096 163.5 204 163.5Z" fill="black" stroke="#F7F7F7"/>
<path d="M204 133.5C210.904 133.5 216.5 139.096 216.5 146C216.5 152.904 210.904 158.5 204 158.5C197.096 158.5 191.5 152.904 191.5 146C191.5 139.096 197.096 133.5 204 133.5Z" fill="black" stroke="#F7F7F7"/>
<path d="M204 193.5C210.904 193.5 216.5 199.096 216.5 206C216.5 212.904 210.904 218.5 204 218.5C197.096 218.5 191.5 212.904 191.5 206C191.5 199.096 197.096 193.5 204 193.5Z" fill="black" stroke="#F7F7F7"/>
<path d="M174 163.5C180.904 163.5 186.5 169.096 186.5 176C186.5 182.904 180.904 188.5 174 188.5C167.096 188.5 161.5 182.904 161.5 176C161.5 169.096 167.096 163.5 174 163.5Z" fill="black" stroke="#F7F7F7"/>
<path d="M234 163.5C240.904 163.5 246.5 169.096 246.5 176C246.5 182.904 240.904 188.5 234 188.5C227.096 188.5 221.5 182.904 221.5 176C221.5 169.096 227.096 163.5 234 163.5Z" fill="black" stroke="#F7F7F7"/>
</g>
<defs>
<filter id="filter0_d_1229_96787" x="0" y="0" width="985.828" height="407" filterUnits="userSpaceOnUse" color-interpolation-filters="sRGB">
<feFlood flood-opacity="0" result="BackgroundImageFix"/>
<feColorMatrix in="SourceAlpha" type="matrix" values="0 0 0 0 0 0 0 0 0 0 0 0 0 0 0 0 0 0 127 0" result="hardAlpha"/>
<feOffset dy="4"/>
<feGaussianBlur stdDeviation="2"/>
<feComposite in2="hardAlpha" operator="out"/>
<feColorMatrix type="matrix" values="0 0 0 0 0 0 0 0 0 0 0 0 0 0 0 0 0 0 0.25 0"/>
<feBlend mode="normal" in2="BackgroundImageFix" result="effect1_dropShadow_1229_96787"/>
<feBlend mode="normal" in="SourceGraphic" in2="effect1_dropShadow_1229_96787" result="shape"/>
</filter>
</defs>
</svg>
