<svg width="733" height="168" viewBox="0 0 733 168" fill="none" xmlns="http://www.w3.org/2000/svg">
<rect x="24.5" y="20.5" width="120" height="123.723" rx="28.5" fill="#FFCE2D" stroke="#F4BD07"/>
<path d="M118.5 44.5V123.52H101.768V116.218H101.521C99.9281 118.76 97.5221 120.924 94.3262 122.714C90.9929 124.581 86.8953 125.5 82.0586 125.5C77.9836 125.5 74.0787 124.703 70.3496 123.108L70.3369 123.103C66.7018 121.428 63.4558 119.166 60.6006 116.319L60.5947 116.314L60.5898 116.309C57.8157 113.373 55.6094 109.895 53.9678 105.882C52.3208 101.856 51.5 97.4594 51.5 92.6982C51.5 87.9368 52.3207 83.5399 53.9678 79.5137C55.6098 75.4997 57.8176 72.0613 60.5947 69.2061L60.5957 69.2051C63.2746 66.4559 66.2992 64.293 69.668 62.7197L70.3457 62.4131C74.0753 60.7353 77.9815 59.8955 82.0586 59.8955C86.8953 59.8956 90.9929 60.8154 94.3262 62.6826C97.0387 64.2022 99.1836 65.9895 100.744 68.0498V44.5H118.5ZM85.5117 75.8711C83.3586 75.8711 81.2904 76.2714 79.3037 77.0723C77.4024 77.873 75.7086 78.993 74.2197 80.4336C72.7361 81.8692 71.5355 83.6286 70.6211 85.7197C69.7141 87.7942 69.2559 90.1181 69.2559 92.6982C69.2559 95.2782 69.7141 97.6014 70.6211 99.6758C71.5354 101.767 72.7361 103.526 74.2197 104.962C75.7085 106.402 77.4025 107.522 79.3037 108.323L79.6768 108.469C81.5489 109.173 83.493 109.524 85.5117 109.524C87.6716 109.524 89.7002 109.163 91.6016 108.443C93.5863 107.642 95.3191 106.522 96.8037 105.086C98.2873 103.65 99.488 101.891 100.402 99.7998C101.309 97.7273 101.768 95.3631 101.768 92.6982C101.768 90.0333 101.309 87.6683 100.402 85.5957C99.488 83.5046 98.2873 81.7451 96.8037 80.3096C95.3204 78.8743 93.59 77.7981 91.6084 77.0791L91.585 77.0693C89.6878 76.2712 87.6649 75.8711 85.5117 75.8711Z" fill="#1F1F1F" stroke="#FFF300"/>
<path d="M186.928 39.216H216.936C223.963 39.216 230.287 40.2907 235.908 42.44C241.529 44.5893 246.324 47.648 250.292 51.616C254.26 55.5013 257.277 60.172 259.344 65.628C261.493 71.084 262.568 77.0773 262.568 83.608C262.568 90.2213 261.493 96.256 259.344 101.712C257.277 107.168 254.26 111.839 250.292 115.724C246.324 119.609 241.529 122.627 235.908 124.776C230.287 126.925 223.963 128 216.936 128H186.928V39.216ZM216.192 112.128C221.069 112.128 225.368 111.467 229.088 110.144C232.808 108.739 235.908 106.796 238.388 104.316C240.868 101.836 242.728 98.86 243.968 95.388C245.208 91.8333 245.828 87.9067 245.828 83.608C245.828 79.3093 245.208 75.424 243.968 71.952C242.728 68.3973 240.868 65.38 238.388 62.9C235.908 60.42 232.808 58.5187 229.088 57.196C225.368 55.7907 221.069 55.088 216.192 55.088H203.668V112.128H216.192ZM280.641 58.436C279.236 58.436 277.872 58.188 276.549 57.692C275.309 57.1133 274.193 56.3693 273.201 55.46C272.292 54.468 271.548 53.352 270.969 52.112C270.473 50.872 270.225 49.508 270.225 48.02C270.225 46.532 270.473 45.168 270.969 43.928C271.548 42.688 272.292 41.6133 273.201 40.704C274.193 39.712 275.309 38.968 276.549 38.472C277.872 37.8933 279.236 37.604 280.641 37.604C283.534 37.604 286.014 38.6373 288.081 40.704C290.148 42.688 291.181 45.1267 291.181 48.02C291.181 50.9133 290.148 53.3933 288.081 55.46C286.014 57.444 283.534 58.436 280.641 58.436ZM272.581 128V67.24H288.825V128H272.581ZM316.451 75.176H317.443C319.344 72.1173 321.907 69.72 325.131 67.984C328.355 66.1653 332.034 65.256 336.167 65.256C339.97 65.256 343.318 65.876 346.211 67.116C349.104 68.356 351.46 70.1333 353.279 72.448C355.18 74.68 356.586 77.408 357.495 80.632C358.487 83.7733 358.983 87.2867 358.983 91.172V128H342.739V93.156C342.739 88.7747 341.747 85.5507 339.763 83.484C337.862 81.3347 335.051 80.26 331.331 80.26C329.099 80.26 327.115 80.756 325.379 81.748C323.726 82.6573 322.279 83.9387 321.039 85.592C319.882 87.1627 318.972 89.064 318.311 91.296C317.732 93.4453 317.443 95.76 317.443 98.24V128H301.199V67.24H316.451V75.176ZM369.922 39.216H386.166V87.576H386.91L407.246 67.24H427.334V68.232L404.766 90.18L429.194 127.008V128H409.974L393.358 101.34L386.166 108.408V128H369.922V39.216ZM435.18 39.216H469.9C473.703 39.216 477.257 39.836 480.564 41.076C483.871 42.2333 486.723 43.8867 489.12 46.036C491.6 48.1027 493.543 50.5413 494.948 53.352C496.353 56.1627 497.056 59.18 497.056 62.404C497.056 67.116 495.899 71.084 493.584 74.308C491.352 77.4493 488.541 79.8467 485.152 81.5V82.492C489.699 84.1453 493.336 86.7493 496.064 90.304C498.875 93.776 500.28 98.116 500.28 103.324C500.28 107.127 499.495 110.557 497.924 113.616C496.436 116.592 494.369 119.155 491.724 121.304C489.079 123.453 485.979 125.107 482.424 126.264C478.952 127.421 475.191 128 471.14 128H435.18V39.216ZM468.66 75.424C472.545 75.424 475.521 74.3907 477.588 72.324C479.737 70.1747 480.812 67.6533 480.812 64.76C480.812 61.8667 479.779 59.3867 477.712 57.32C475.645 55.2533 472.793 54.22 469.156 54.22H451.92V75.424H468.66ZM470.52 112.624C474.736 112.624 477.96 111.591 480.192 109.524C482.424 107.375 483.54 104.647 483.54 101.34C483.54 98.0333 482.383 95.3053 480.068 93.156C477.836 90.924 474.488 89.808 470.024 89.808H451.92V112.624H470.52ZM546.148 121.552H545.156C543.255 123.867 540.94 125.851 538.212 127.504C535.567 129.157 532.136 129.984 527.92 129.984C524.779 129.984 521.803 129.447 518.992 128.372C516.264 127.38 513.867 125.975 511.8 124.156C509.734 122.337 508.122 120.147 506.964 117.584C505.807 115.021 505.228 112.211 505.228 109.152C505.228 106.011 505.848 103.2 507.088 100.72C508.328 98.1573 510.064 95.9667 512.296 94.148C514.528 92.3293 517.132 90.9653 520.108 90.056C523.167 89.064 526.474 88.568 530.028 88.568C533.996 88.568 537.262 88.8987 539.824 89.56C542.387 90.1387 544.495 90.7587 546.148 91.42V89.56C546.148 86.336 544.867 83.6907 542.304 81.624C539.742 79.4747 536.559 78.4 532.756 78.4C527.135 78.4 522.382 80.756 518.496 85.468L506.716 77.408C513.164 69.3067 521.968 65.256 533.128 65.256C542.552 65.256 549.744 67.488 554.704 71.952C559.664 76.3333 562.144 82.864 562.144 91.544V128H546.148V121.552ZM546.148 103.324C544.247 102.415 542.263 101.712 540.196 101.216C538.212 100.637 536.022 100.348 533.624 100.348C529.739 100.348 526.722 101.216 524.572 102.952C522.506 104.605 521.472 106.672 521.472 109.152C521.472 111.632 522.464 113.616 524.448 115.104C526.515 116.592 528.871 117.336 531.516 117.336C533.666 117.336 535.65 116.964 537.468 116.22C539.287 115.393 540.816 114.36 542.056 113.12C543.379 111.797 544.371 110.309 545.032 108.656C545.776 106.92 546.148 105.143 546.148 103.324ZM587.832 75.176H588.824C590.725 72.1173 593.288 69.72 596.512 67.984C599.736 66.1653 603.414 65.256 607.548 65.256C611.35 65.256 614.698 65.876 617.592 67.116C620.485 68.356 622.841 70.1333 624.66 72.448C626.561 74.68 627.966 77.408 628.876 80.632C629.868 83.7733 630.364 87.2867 630.364 91.172V128H614.12V93.156C614.12 88.7747 613.128 85.5507 611.144 83.484C609.242 81.3347 606.432 80.26 602.712 80.26C600.48 80.26 598.496 80.756 596.76 81.748C595.106 82.6573 593.66 83.9387 592.42 85.592C591.262 87.1627 590.353 89.064 589.692 91.296C589.113 93.4453 588.824 95.76 588.824 98.24V128H572.58V67.24H587.832V75.176ZM641.303 39.216H657.547V87.576H658.291L678.627 67.24H698.715V68.232L676.147 90.18L700.575 127.008V128H681.355L664.739 101.34L657.547 108.408V128H641.303V39.216Z" fill="#1F1F1F"/>
</svg>
